<?xml version="1.0" encoding="UTF-8"?>
<svg width="148px" height="47px" viewBox="0 0 148 47" version="1.1" xmlns="http://www.w3.org/2000/svg" xmlns:xlink="http://www.w3.org/1999/xlink">
    <!-- Generator: Sketch 49.1 (51147) - http://www.bohemiancoding.com/sketch -->
    <title>enevo-customer-portal-logo</title>
    <desc>Created with Sketch.</desc>
    <defs></defs>
    <g id="Prototype" stroke="none" stroke-width="1" fill="none" fill-rule="evenodd">
        <g id="Artboard">
            
            <g id="logo" fill="#FF8820" fill-rule="nonzero">
                <path d="M16.9465325,10.1067823 C16.8111944,8.4774647 16.3533612,7.27364968 15.5730331,6.4953372 C14.7256455,5.65185202 13.5173561,5.23073609 11.948165,5.23198942 C10.5118735,5.23198942 9.33650428,5.65310535 8.42205724,6.4953372 C7.5076102,7.33756906 7.0199051,8.54138408 6.95894197,10.1067823 L16.9465325,10.1067823 Z M18.7077575,17.1454342 L23.603707,17.1454342 C22.8879998,19.6708764 21.5175484,21.5966046 19.4923531,22.9226184 C17.4647192,24.3087916 14.918289,25.0012517 11.8530625,24.9999983 C8.13065345,24.9999983 5.22393112,23.8857957 3.13289556,21.6573906 C1.04429852,19.4929049 0,16.3946948 0,12.3627605 C0,8.50879774 1.01198806,5.50082682 3.03596417,3.33884772 C5.12699973,1.11294924 8.03311242,0 11.7543023,0 C15.6717934,0 18.707148,1.08224287 20.8603659,3.24672861 C22.9501822,5.47262709 23.9956999,8.57146379 23.9969192,12.5432387 L23.9969192,13.5377491 C24.010796,13.7524884 23.9776738,13.9676944 23.8999878,14.167543 L6.95345529,14.167543 C7.01807621,16.032485 7.5057813,17.4167783 8.41657056,18.3204229 C9.27005447,19.2817202 10.544184,19.7623689 12.2389592,19.7623689 C13.2214499,19.7929504 14.1963734,19.5767737 15.0792317,19.132575 C15.2786907,19.0674961 15.4625395,18.9598711 15.6187554,18.8167381 C15.7778692,18.6682195 15.9589297,18.4990212 16.1582792,18.3204229 C16.2222905,18.1324247 16.4655334,17.897427 16.8898368,17.5966299 C17.3141403,17.2958328 17.9176753,17.1454342 18.7040998,17.1454342 L18.7077575,17.1454342 Z" id="_Compound_Path_"></path>
                <path d="M55,24 L51.3766296,24 C50.341381,24 49.5012071,23.7207043 48.8406567,23.1566004 C48.1913669,22.6136623 47.8308446,21.8232509 47.8575567,21.0012457 L47.8575567,8.99887863 C47.8575567,7.58770013 47.3579591,6.5593283 46.3587639,5.91376314 C45.3694748,5.26879429 44.1953622,4.9293977 42.9961371,4.94174046 C41.8143681,4.92593877 40.6576301,5.26617574 39.6914534,5.91376314 C38.7244487,6.5593283 38.2415901,7.58770013 38.2428778,8.99887863 L38.2428778,24 L31,24 L31,10.2336598 C31,6.23409576 32.2232415,3.55812405 34.6697248,2.20574466 C37.1420062,0.847334456 39.9282922,0.0899812036 42.7817479,0.000778260977 C45.7126244,-0.0266197448 48.6008421,0.669804246 51.1641719,2.02199746 C53.7110897,3.36947691 54.9877676,6.10363524 54.9942057,10.2244724 L54.9942057,23.9908126 L55,24 Z" id="_Path_"></path>
                <path d="M75.9425063,10.1067823 C75.8132533,8.4774647 75.3566001,7.27364968 74.5725466,6.4953372 C73.718989,5.65185202 72.5112053,5.23073609 70.9491951,5.23198942 C69.510341,5.23198942 68.3342607,5.65310535 67.4209542,6.4953372 C66.5076478,7.33756906 66.0199006,8.54138408 65.9577128,10.1067823 L75.9425063,10.1067823 Z M77.7093703,17.1454342 L82.6057418,17.1454342 C81.8863149,19.6708764 80.5157453,21.5966046 78.4940335,22.9226184 C76.4650055,24.3087916 73.9171364,25.0012517 70.8504263,24.9999983 C67.1313544,24.9999983 64.2256008,23.8857957 62.1331656,21.6573906 C60.0443885,19.4929049 59,16.3946948 59,12.3627605 C59,8.50879774 60.0114656,5.50082682 62.0343968,3.33884772 C64.126832,1.11294924 67.0338049,0 70.7553156,0 C74.6707057,0 77.7069316,1.08224287 79.8639933,3.24672861 C81.9527704,5.47262709 82.9971589,8.57146379 82.9971589,12.5432387 L82.9971589,13.5377491 C83.0101743,13.7521184 82.9783671,13.9668664 82.9038773,14.167543 L65.9577128,14.167543 C66.0247781,16.032485 66.5125251,17.4167783 67.4209542,18.3204229 C68.2696343,19.2829736 69.5408252,19.7623689 71.2418433,19.7623689 C72.2255465,19.7924287 73.2016187,19.5762944 74.0860188,19.132575 C74.2844885,19.0676963 74.467197,18.9600179 74.621931,18.8167381 C74.7847166,18.6682195 74.9639636,18.4990212 75.1706465,18.3204229 C75.2346633,18.1324247 75.4779272,17.897427 75.9022672,17.5966299 C76.3266072,17.2958328 76.9301943,17.1454342 77.7111994,17.1454342 L77.7093703,17.1454342 Z" id="_Compound_Path_2"></path>
                <path d="M104.522872,25 L97.3717429,25 L88,1 L95.4578749,1 L100.796757,17.8706546 L105.539085,3.16285625 C106.074793,1.72095208 107.148716,1 108.760857,1 L114,1 L104.522872,25 Z" id="_Path_2"></path>
                <path d="M125.667569,12.6980324 C125.789482,15.43659 126.344798,17.3458132 127.333516,18.4257019 C127.726686,18.9086452 128.406963,19.314543 129.385319,19.6433955 C130.352106,19.972258 131.391348,20.0036097 132.375245,19.733595 C133.386517,19.4611173 134.284409,18.7940166 135.065265,17.7041058 C135.84612,16.6141949 136.275865,14.8853707 136.345356,12.4725336 C136.345356,10.3064923 135.970472,8.68290091 135.220705,7.60175944 C134.46728,6.51936519 133.605961,5.82971469 132.625777,5.53468709 C131.67034,5.23360851 130.65147,5.21666917 129.687054,5.48582901 C128.70687,5.75642758 127.986362,6.10407156 127.531015,6.5231235 C126.163147,7.90806198 125.537731,9.9676177 125.673055,12.6999115 M122.820281,22.3888434 C121.424805,21.2780541 120.397193,19.7515327 119.8779,18.0179249 C119.289396,16.1678606 118.99305,14.2328778 119.000124,12.286497 C119.00358,10.6349102 119.250198,8.99336698 119.731604,7.41760208 C120.164748,5.8921629 120.955273,4.49912612 122.033939,3.36050281 C123.729755,1.55651239 125.916882,0.48852501 128.59532,0.156540662 C131.273758,-0.175443685 133.689472,0.0206149953 135.842463,0.744716704 C138.325839,1.64859107 140.147226,3.21204943 141.328567,5.44260841 C142.442856,7.42574509 143,9.74337168 143,12.3954881 C143,14.3184918 142.769584,15.9708969 142.308751,17.3527035 C141.916092,18.6115087 141.324865,19.7954816 140.558684,20.8573307 C139.070115,22.7929318 136.948559,24.1076638 134.587974,24.5573902 C132.452632,25.0977276 130.227153,25.1439402 128.072311,24.6926895 C125.887013,24.2416919 124.133288,23.4768751 122.83491,22.3888434" id="_Compound_Path_3"></path>
            </g>
        </g>
    </g>
</svg>